<mxfile host="app.diagrams.net" agent="Mozilla/5.0 (Windows NT 10.0; Win64; x64) AppleWebKit/537.36 (KHTML, like Gecko) Chrome/137.0.0.0 Safari/537.36" version="27.0.3">
  <diagram id="C5RBs43oDa-KdzZeNtuy" name="Page-1">
    <mxGraphModel dx="1206" dy="531" grid="1" gridSize="10" guides="1" tooltips="1" connect="1" arrows="1" fold="1" page="1" pageScale="1" pageWidth="827" pageHeight="1169" math="0" shadow="0">
      <root>
        <mxCell id="WIyWlLk6GJQsqaUBKTNV-0" />
        <mxCell id="WIyWlLk6GJQsqaUBKTNV-1" parent="WIyWlLk6GJQsqaUBKTNV-0" />
        <mxCell id="WIyWlLk6GJQsqaUBKTNV-3" value="Collection of data&amp;nbsp;" style="rounded=1;whiteSpace=wrap;html=1;fontSize=12;glass=0;strokeWidth=1;shadow=0;" parent="WIyWlLk6GJQsqaUBKTNV-1" vertex="1">
          <mxGeometry x="351" y="230" width="120" height="40" as="geometry" />
        </mxCell>
        <mxCell id="F4xcCG3BH6FKXZwN4M7X-0" value="INSAT AOD Data" style="rounded=1;whiteSpace=wrap;html=1;" vertex="1" parent="WIyWlLk6GJQsqaUBKTNV-1">
          <mxGeometry x="181" y="70" width="120" height="40" as="geometry" />
        </mxCell>
        <mxCell id="F4xcCG3BH6FKXZwN4M7X-1" value="CPCB PM2.5/ PM10 Data" style="rounded=1;whiteSpace=wrap;html=1;" vertex="1" parent="WIyWlLk6GJQsqaUBKTNV-1">
          <mxGeometry x="351" y="70" width="120" height="40" as="geometry" />
        </mxCell>
        <mxCell id="F4xcCG3BH6FKXZwN4M7X-2" value="MERRA-2 Weather Data" style="rounded=1;whiteSpace=wrap;html=1;" vertex="1" parent="WIyWlLk6GJQsqaUBKTNV-1">
          <mxGeometry x="525" y="70" width="120" height="40" as="geometry" />
        </mxCell>
        <mxCell id="F4xcCG3BH6FKXZwN4M7X-4" value="" style="endArrow=none;html=1;rounded=0;entryX=0.5;entryY=1;entryDx=0;entryDy=0;" edge="1" parent="WIyWlLk6GJQsqaUBKTNV-1" target="F4xcCG3BH6FKXZwN4M7X-2">
          <mxGeometry width="50" height="50" relative="1" as="geometry">
            <mxPoint x="585" y="170" as="sourcePoint" />
            <mxPoint x="541" y="230" as="targetPoint" />
            <Array as="points" />
          </mxGeometry>
        </mxCell>
        <mxCell id="F4xcCG3BH6FKXZwN4M7X-5" value="" style="endArrow=none;html=1;rounded=0;" edge="1" parent="WIyWlLk6GJQsqaUBKTNV-1">
          <mxGeometry width="50" height="50" relative="1" as="geometry">
            <mxPoint x="241" y="170" as="sourcePoint" />
            <mxPoint x="585" y="170" as="targetPoint" />
          </mxGeometry>
        </mxCell>
        <mxCell id="F4xcCG3BH6FKXZwN4M7X-6" value="" style="endArrow=none;html=1;rounded=0;entryX=0.5;entryY=1;entryDx=0;entryDy=0;" edge="1" parent="WIyWlLk6GJQsqaUBKTNV-1" target="F4xcCG3BH6FKXZwN4M7X-1">
          <mxGeometry width="50" height="50" relative="1" as="geometry">
            <mxPoint x="411" y="170" as="sourcePoint" />
            <mxPoint x="595" y="120" as="targetPoint" />
            <Array as="points" />
          </mxGeometry>
        </mxCell>
        <mxCell id="F4xcCG3BH6FKXZwN4M7X-7" value="" style="endArrow=none;html=1;rounded=0;entryX=0.5;entryY=1;entryDx=0;entryDy=0;" edge="1" parent="WIyWlLk6GJQsqaUBKTNV-1" target="F4xcCG3BH6FKXZwN4M7X-0">
          <mxGeometry width="50" height="50" relative="1" as="geometry">
            <mxPoint x="241" y="170" as="sourcePoint" />
            <mxPoint x="511" y="160" as="targetPoint" />
          </mxGeometry>
        </mxCell>
        <mxCell id="F4xcCG3BH6FKXZwN4M7X-8" value="" style="endArrow=classic;html=1;rounded=0;entryX=0.5;entryY=0;entryDx=0;entryDy=0;" edge="1" parent="WIyWlLk6GJQsqaUBKTNV-1" target="WIyWlLk6GJQsqaUBKTNV-3">
          <mxGeometry width="50" height="50" relative="1" as="geometry">
            <mxPoint x="411" y="170" as="sourcePoint" />
            <mxPoint x="521" y="180" as="targetPoint" />
          </mxGeometry>
        </mxCell>
        <mxCell id="F4xcCG3BH6FKXZwN4M7X-9" value="Data Ingestion and Preprocessing&amp;nbsp;" style="rounded=1;whiteSpace=wrap;html=1;" vertex="1" parent="WIyWlLk6GJQsqaUBKTNV-1">
          <mxGeometry x="346" y="330" width="130" height="60" as="geometry" />
        </mxCell>
        <mxCell id="F4xcCG3BH6FKXZwN4M7X-10" value="" style="endArrow=classic;html=1;rounded=0;exitX=0.5;exitY=1;exitDx=0;exitDy=0;entryX=0.5;entryY=0;entryDx=0;entryDy=0;" edge="1" parent="WIyWlLk6GJQsqaUBKTNV-1" source="WIyWlLk6GJQsqaUBKTNV-3" target="F4xcCG3BH6FKXZwN4M7X-9">
          <mxGeometry width="50" height="50" relative="1" as="geometry">
            <mxPoint x="451" y="290" as="sourcePoint" />
            <mxPoint x="501" y="240" as="targetPoint" />
          </mxGeometry>
        </mxCell>
        <mxCell id="F4xcCG3BH6FKXZwN4M7X-11" value="Feature Engineering&lt;div&gt;(Interpolation, merging etc.)&lt;/div&gt;" style="rounded=1;whiteSpace=wrap;html=1;" vertex="1" parent="WIyWlLk6GJQsqaUBKTNV-1">
          <mxGeometry x="311" y="450" width="200" height="60" as="geometry" />
        </mxCell>
        <mxCell id="F4xcCG3BH6FKXZwN4M7X-12" value="" style="endArrow=classic;html=1;rounded=0;exitX=0.5;exitY=1;exitDx=0;exitDy=0;entryX=0.5;entryY=0;entryDx=0;entryDy=0;" edge="1" parent="WIyWlLk6GJQsqaUBKTNV-1" source="F4xcCG3BH6FKXZwN4M7X-9" target="F4xcCG3BH6FKXZwN4M7X-11">
          <mxGeometry width="50" height="50" relative="1" as="geometry">
            <mxPoint x="431" y="410" as="sourcePoint" />
            <mxPoint x="481" y="360" as="targetPoint" />
          </mxGeometry>
        </mxCell>
        <mxCell id="F4xcCG3BH6FKXZwN4M7X-14" value="ML Model Training&amp;nbsp;&lt;div&gt;(XGBoost, Random Forest)&lt;/div&gt;" style="rounded=1;whiteSpace=wrap;html=1;" vertex="1" parent="WIyWlLk6GJQsqaUBKTNV-1">
          <mxGeometry x="338.5" y="560" width="145" height="60" as="geometry" />
        </mxCell>
        <mxCell id="F4xcCG3BH6FKXZwN4M7X-15" value="" style="endArrow=classic;html=1;rounded=0;" edge="1" parent="WIyWlLk6GJQsqaUBKTNV-1" target="F4xcCG3BH6FKXZwN4M7X-14">
          <mxGeometry width="50" height="50" relative="1" as="geometry">
            <mxPoint x="411" y="510" as="sourcePoint" />
            <mxPoint x="461" y="460" as="targetPoint" />
          </mxGeometry>
        </mxCell>
        <mxCell id="F4xcCG3BH6FKXZwN4M7X-16" value="Predictions Based on the historical and present Data" style="rounded=1;whiteSpace=wrap;html=1;" vertex="1" parent="WIyWlLk6GJQsqaUBKTNV-1">
          <mxGeometry x="328.5" y="690" width="165" height="50" as="geometry" />
        </mxCell>
        <mxCell id="F4xcCG3BH6FKXZwN4M7X-17" value="" style="endArrow=classic;html=1;rounded=0;exitX=0.5;exitY=1;exitDx=0;exitDy=0;" edge="1" parent="WIyWlLk6GJQsqaUBKTNV-1">
          <mxGeometry width="50" height="50" relative="1" as="geometry">
            <mxPoint x="411.7" y="620" as="sourcePoint" />
            <mxPoint x="412" y="690" as="targetPoint" />
          </mxGeometry>
        </mxCell>
        <mxCell id="F4xcCG3BH6FKXZwN4M7X-18" value="Displaying the data on the dashboard" style="rounded=1;whiteSpace=wrap;html=1;" vertex="1" parent="WIyWlLk6GJQsqaUBKTNV-1">
          <mxGeometry x="351" y="800" width="120" height="40" as="geometry" />
        </mxCell>
        <mxCell id="F4xcCG3BH6FKXZwN4M7X-19" value="" style="endArrow=classic;html=1;rounded=0;exitX=0.5;exitY=1;exitDx=0;exitDy=0;entryX=0.5;entryY=0;entryDx=0;entryDy=0;" edge="1" parent="WIyWlLk6GJQsqaUBKTNV-1" source="F4xcCG3BH6FKXZwN4M7X-16" target="F4xcCG3BH6FKXZwN4M7X-18">
          <mxGeometry width="50" height="50" relative="1" as="geometry">
            <mxPoint x="411" y="720" as="sourcePoint" />
            <mxPoint x="461" y="670" as="targetPoint" />
          </mxGeometry>
        </mxCell>
      </root>
    </mxGraphModel>
  </diagram>
</mxfile>
